{"title":"Slender Man 2018 720p HDTS x264 [MW]","magnet":"magnet:?xt=urn:btih:59906d0e655900009c702392e6a955e9d3de76a4&dn=Slender+Man+2018+720p+HDTS+x264+%5BMW%5D&tr=udp%3A%2F%2Ftracker.leechers-paradise.org%3A6969&tr=udp%3A%2F%2Fzer0day.ch%3A1337&tr=udp%3A%2F%2Fopen.demonii.com%3A1337&tr=udp%3A%2F%2Ftracker.coppersurfer.tk%3A6969&tr=udp%3A%2F%2Fexodus.desync.com%3A6969","uploader":"MFreaky","categoryP":"video","categoryS":"movies","size":"1196152288","seeders":"0","leechers":"0","description":" <a href=\"https://pichub.site/image/DnOHu\" rel=\"nofollow\" target=\"_NEW\">https://pichub.site/image/DnOHu</a> <a href=\"\nhttps://pichub.site/image/DnIv9\" rel=\"nofollow\" target=\"_NEW\">\nhttps://pichub.site/image/DnIv9</a> <a href=\"\nhttps://pichub.site/image/DnDgs\" rel=\"nofollow\" target=\"_NEW\">\nhttps://pichub.site/image/DnDgs</a> <a href=\"\nhttps://pichub.site/image/DnSDR\" rel=\"nofollow\" target=\"_NEW\">\nhttps://pichub.site/image/DnSDR</a> <a href=\"\nhttps://pichub.site/image/DnEnB\" rel=\"nofollow\" target=\"_NEW\">\nhttps://pichub.site/image/DnEnB</a>\r\n\r\nIMDB <a href=\"\nhttps://www.imdb.com/title/tt5690360/\" rel=\"nofollow\" target=\"_NEW\">\nhttps://www.imdb.com/title/tt5690360/</a>\r\n\r\nVideo\r\nID                                       : 1\r\nFormat                                   : AVC\r\nFormat/Info                              : Advanced Video Codec\r\nFormat profile                           : High@L4.1\r\nFormat settings                          : CABAC / 4 Ref Frames\r\nFormat settings, CABAC                   : Yes\r\nFormat settings, RefFrames               : 4 frames\r\nCodec ID                                 : V_MPEG4/ISO/AVC\r\nDuration                                 : 1 h 27 min\r\nBit rate                                 : 1 600 kb/s\r\nWidth                                    : 1 280 pixels\r\nHeight                                   : 552 pixels\r\nDisplay aspect ratio                     : 2.35:1\r\nFrame rate mode                          : Constant\r\nFrame rate                               : 29.970 (30000/1001) FPS\r\nColor space                              : YUV\r\nChroma subsampling                       : 4:2:0\r\nBit depth                                : 8 bits\r\nScan type                                : Progressive\r\nBits/(Pixel*Frame)                       : 0.076\r\nStream size                              : 997 MiB (87%)\r\nWriting library                          : x264 core 155 r2901 7d0ff22\r\nDefault                                  : Yes\r\nForced                                   : No\r\n\r\nAudio\r\nID                                       : 2\r\nFormat                                   : AAC\r\nFormat/Info                              : Advanced Audio Codec\r\nFormat profile                           : LC\r\nCodec ID                                 : A_AAC-2\r\nDuration                                 : 1 h 27 min\r\nBit rate                                 : 228 kb/s\r\nChannel(s)                               : 2 channels\r\nChannel positions                        : Front: L R\r\nSampling rate                            : 48.0 kHz\r\nFrame rate                               : 46.875 FPS (1024 SPF)\r\nCompression mode                         : Lossy\r\nStream size                              : 142 MiB (12%)\r\nLanguage                                 : English\r\nDefault                                  : Yes\r\nForced                                   : No","last_updated":"2018-09-09T12:20:14.944Z","parsed":{"xt":"urn:btih:59906d0e655900009c702392e6a955e9d3de76a4","dn":"Slender Man 2018 720p HDTS x264 [MW]","tr":["udp://exodus.desync.com:6969","udp://open.demonii.com:1337","udp://tracker.coppersurfer.tk:6969","udp://tracker.leechers-paradise.org:6969","udp://zer0day.ch:1337"],"infoHash":"59906d0e655900009c702392e6a955e9d3de76a4","infoHashBuffer":{"type":"Buffer","data":[89,144,109,14,101,89,0,0,156,112,35,146,230,169,85,233,211,222,118,164]},"name":"Slender Man 2018 720p HDTS x264 [MW]","announce":["udp://exodus.desync.com:6969","udp://open.demonii.com:1337","udp://tracker.coppersurfer.tk:6969","udp://tracker.leechers-paradise.org:6969","udp://zer0day.ch:1337"],"urlList":[]}}